%TF.GenerationSoftware,KiCad,Pcbnew,7.0.6*%
%TF.CreationDate,2024-02-29T16:34:28+02:00*%
%TF.ProjectId,sensirion,73656e73-6972-4696-9f6e-2e6b69636164,rev?*%
%TF.SameCoordinates,Original*%
%TF.FileFunction,Copper,L1,Top*%
%TF.FilePolarity,Positive*%
%FSLAX46Y46*%
G04 Gerber Fmt 4.6, Leading zero omitted, Abs format (unit mm)*
G04 Created by KiCad (PCBNEW 7.0.6) date 2024-02-29 16:34:28*
%MOMM*%
%LPD*%
G01*
G04 APERTURE LIST*
%TA.AperFunction,NonConductor*%
%ADD10C,0.200000*%
%TD*%
%TA.AperFunction,ViaPad*%
%ADD11C,2.500000*%
%TD*%
%TA.AperFunction,ViaPad*%
%ADD12C,3.500000*%
%TD*%
%TA.AperFunction,ViaPad*%
%ADD13C,1.000000*%
%TD*%
G04 APERTURE END LIST*
D10*
X14500000Y-9000000D02*
X2300000Y-9000000D01*
X2300000Y0D01*
X3700000Y2000000D01*
X3700000Y9000000D01*
X14500000Y9000000D01*
X14500000Y-9000000D01*
%TA.AperFunction,NonConductor*%
G36*
X14500000Y-9000000D02*
G01*
X2300000Y-9000000D01*
X2300000Y0D01*
X3700000Y2000000D01*
X3700000Y9000000D01*
X14500000Y9000000D01*
X14500000Y-9000000D01*
G37*
%TD.AperFunction*%
X-3800000Y1900000D02*
X-2300000Y0D01*
X-2300000Y-9000000D01*
X-14500000Y-9000000D01*
X-14500000Y9000000D01*
X-3800000Y9000000D01*
X-3800000Y1900000D01*
%TA.AperFunction,NonConductor*%
G36*
X-3800000Y1900000D02*
G01*
X-2300000Y0D01*
X-2300000Y-9000000D01*
X-14500000Y-9000000D01*
X-14500000Y9000000D01*
X-3800000Y9000000D01*
X-3800000Y1900000D01*
G37*
%TD.AperFunction*%
X3000000Y2000000D02*
X1700000Y600000D01*
X1700000Y-9000000D01*
X300000Y-9000000D01*
X300000Y9000000D01*
X3000000Y9000000D01*
X3000000Y2000000D01*
%TA.AperFunction,NonConductor*%
G36*
X3000000Y2000000D02*
G01*
X1700000Y600000D01*
X1700000Y-9000000D01*
X300000Y-9000000D01*
X300000Y9000000D01*
X3000000Y9000000D01*
X3000000Y2000000D01*
G37*
%TD.AperFunction*%
X-300000Y-9000000D02*
X-1700000Y-9000000D01*
X-1700000Y600000D01*
X-3000000Y2000000D01*
X-3000000Y9000000D01*
X-300000Y9000000D01*
X-300000Y-9000000D01*
%TA.AperFunction,NonConductor*%
G36*
X-300000Y-9000000D02*
G01*
X-1700000Y-9000000D01*
X-1700000Y600000D01*
X-3000000Y2000000D01*
X-3000000Y9000000D01*
X-300000Y9000000D01*
X-300000Y-9000000D01*
G37*
%TD.AperFunction*%
D11*
%TO.N,*%
X-11100000Y-5950000D03*
D12*
X12000000Y0D03*
D13*
X-3000000Y-2750000D03*
X11300000Y-3000000D03*
X-11300000Y3000000D03*
X1000000Y-2750000D03*
D11*
X11100000Y4450000D03*
D12*
X-12000000Y0D03*
D11*
X-11100000Y5950000D03*
D13*
X-1000000Y-2750000D03*
X3000000Y-2750000D03*
D11*
X11100000Y-5950000D03*
%TD*%
M02*
